<svg xmlns="http://www.w3.org/2000/svg" width="1920" height="920" style="cursor: move;"><g transform="translate(32,-24) scale(1)"><path class="link" marker-end="" d="M817,430, 980,410" style="stroke-width: 0.5; stroke-opacity: 1; stroke: rgb(255, 141, 141);"></path><path class="link" marker-end="" d="M817,470, 980,410" style="stroke-width: 0.5; stroke-opacity: 1; stroke: rgb(64, 64, 255);"></path><path class="link" marker-end="" d="M980,370, 1143,470" style="stroke-width: 0.5; stroke-opacity: 1; stroke: rgb(138, 138, 255);"></path><path class="link" marker-end="" d="M980,410, 1143,470" style="stroke-width: 0.5; stroke-opacity: 1; stroke: rgb(255, 0, 0);"></path><path class="link" marker-end="" d="M817,430, 980,370" style="stroke-width: 0.5; stroke-opacity: 1; stroke: rgb(98, 98, 255);"></path><path class="link" marker-end="" d="M817,470, 980,370" style="stroke-width: 0.5; stroke-opacity: 1; stroke: rgb(255, 228, 228);"></path><path class="link" marker-end="" d="M980,370, 1143,430" style="stroke-width: 0.5; stroke-opacity: 1; stroke: rgb(255, 149, 149);"></path><path class="link" marker-end="" d="M980,410, 1143,430" style="stroke-width: 0.5; stroke-opacity: 1; stroke: rgb(255, 1, 1);"></path><path class="link" marker-end="" d="M817,430, 980,450" style="stroke-width: 0.5; stroke-opacity: 1; stroke: rgb(115, 115, 255);"></path><path class="link" marker-end="" d="M817,430, 980,490" style="stroke-width: 0.5; stroke-opacity: 1; stroke: rgb(255, 65, 65);"></path><path class="link" marker-end="" d="M817,430, 980,530" style="stroke-width: 0.5; stroke-opacity: 1; stroke: rgb(146, 146, 255);"></path><path class="link" marker-end="" d="M817,470, 980,450" style="stroke-width: 0.5; stroke-opacity: 1; stroke: rgb(255, 29, 29);"></path><path class="link" marker-end="" d="M817,470, 980,490" style="stroke-width: 0.5; stroke-opacity: 1; stroke: rgb(255, 201, 201);"></path><path class="link" marker-end="" d="M817,470, 980,530" style="stroke-width: 0.5; stroke-opacity: 1; stroke: rgb(174, 174, 255);"></path><path class="link" marker-end="" d="M980,450, 1143,430" style="stroke-width: 0.5; stroke-opacity: 1; stroke: rgb(94, 94, 255);"></path><path class="link" marker-end="" d="M980,450, 1143,470" style="stroke-width: 0.5; stroke-opacity: 1; stroke: rgb(255, 66, 66);"></path><path class="link" marker-end="" d="M980,490, 1143,430" style="stroke-width: 0.5; stroke-opacity: 1; stroke: rgb(255, 116, 116);"></path><path class="link" marker-end="" d="M980,490, 1143,470" style="stroke-width: 0.5; stroke-opacity: 1; stroke: rgb(255, 253, 253);"></path><path class="link" marker-end="" d="M980,530, 1143,430" style="stroke-width: 0.5; stroke-opacity: 1; stroke: rgb(255, 49, 49);"></path><path class="link" marker-end="" d="M980,530, 1143,470" style="stroke-width: 0.5; stroke-opacity: 1; stroke: rgb(20, 20, 255);"></path><circle r="13.5" class="node" id="0_0" cx="817" cy="430" style="fill: rgb(255, 255, 255); stroke: rgb(51, 51, 51);"></circle><circle r="13.5" class="node" id="0_1" cx="817" cy="470" style="fill: rgb(255, 255, 255); stroke: rgb(51, 51, 51);"></circle><circle r="13.5" class="node" id="1_0" cx="980" cy="370" style="fill: rgb(255, 255, 255); stroke: rgb(51, 51, 51);"></circle><circle r="13.5" class="node" id="1_1" cx="980" cy="410" style="fill: rgb(255, 255, 255); stroke: rgb(51, 51, 51);"></circle><circle r="13.5" class="node" id="1_2" cx="980" cy="450" style="fill: rgb(255, 255, 255); stroke: rgb(51, 51, 51);"></circle><circle r="13.5" class="node" id="1_3" cx="980" cy="490" style="fill: rgb(255, 255, 255); stroke: rgb(51, 51, 51);"></circle><circle r="13.5" class="node" id="1_4" cx="980" cy="530" style="fill: rgb(255, 255, 255); stroke: rgb(51, 51, 51);"></circle><circle r="13.5" class="node" id="2_0" cx="1143" cy="430" style="fill: rgb(255, 255, 255); stroke: rgb(51, 51, 51);"></circle><circle r="13.5" class="node" id="2_1" cx="1143" cy="470" style="fill: rgb(255, 255, 255); stroke: rgb(51, 51, 51);"></circle><text class="text" dy=".35em" x="782" y="570" style="font-size: 12px;">Input Layer ∈ ℝ²</text><text class="text" dy=".35em" x="945" y="570" style="font-size: 12px;">Hidden Layer ∈ ℝ⁵</text><text class="text" dy=".35em" x="1108" y="570" style="font-size: 12px;">Output Layer ∈ ℝ²</text></g><defs><marker id="arrow" viewBox="0 -5 10 10" markerWidth="7" markerHeight="7" orient="auto" refX="49.8"><path d="M0,-5L10,0L0,5" style="stroke: rgb(80, 80, 80); fill: none;"></path></marker></defs></svg>